<svg width="50" height="50" viewBox="0 0 50 50" fill="none" xmlns="http://www.w3.org/2000/svg">
<path d="M14.5437 6.25C15.0095 5.3113 15.7281 4.52136 16.6188 3.96922C17.5094 3.41707 18.5365 3.12468 19.5844 3.125H34.0625C36.6318 3.125 39.0958 4.14564 40.9126 5.9624C42.7294 7.77916 43.75 10.2432 43.75 12.8125V35.8344C43.7503 36.8823 43.4579 37.9094 42.9058 38.8C42.3536 39.6906 41.5637 40.4093 40.625 40.875V12.8125C40.625 11.072 39.9336 9.40282 38.7029 8.17211C37.4722 6.9414 35.803 6.25 34.0625 6.25H14.5437ZM15 9.375C13.5082 9.375 12.0774 9.96763 11.0225 11.0225C9.96763 12.0774 9.375 13.5082 9.375 15V45.3125C9.37554 45.5787 9.44408 45.8403 9.5741 46.0726C9.70413 46.3049 9.89134 46.5001 10.118 46.6397C10.3446 46.7793 10.6032 46.8587 10.8691 46.8703C11.135 46.882 11.3995 46.8255 11.6375 46.7063L23.4375 40.8125L35.2406 46.7094C35.4787 46.828 35.7432 46.8839 36.0089 46.8718C36.2747 46.8596 36.5329 46.7798 36.7592 46.6399C36.9854 46.5 37.1722 46.3047 37.3019 46.0724C37.4315 45.8401 37.4997 45.5785 37.5 45.3125V15C37.5 13.5082 36.9074 12.0774 35.8525 11.0225C34.7976 9.96763 33.3668 9.375 31.875 9.375H15ZM12.5 15C12.5 14.337 12.7634 13.7011 13.2322 13.2322C13.7011 12.7634 14.337 12.5 15 12.5H31.875C32.538 12.5 33.1739 12.7634 33.6428 13.2322C34.1116 13.7011 34.375 14.337 34.375 15V42.7812L24.1375 37.6656C23.9202 37.5567 23.6805 37.5001 23.4375 37.5001C23.1945 37.5001 22.9548 37.5567 22.7375 37.6656L12.5 42.7812V15Z" fill="#287BB8"/>
</svg>
