<svg width="80" height="80" viewBox="0 0 80 80" fill="none" xmlns="http://www.w3.org/2000/svg">
<path fill-rule="evenodd" clip-rule="evenodd" d="M15.3927 21.3927H29.4817V30.6047C28.6218 32.1133 27.9626 33.7511 27.5405 35.4817H15.3927V21.3927ZM27.1336 42.5263V42.2646C27.1439 42.352 27.1549 42.4392 27.1665 42.5263H27.1336ZM35 40C35 42.0423 35.5566 43.9545 36.5263 45.5934V37.8299H35.214C35.0736 38.5315 35 39.2571 35 40ZM29.4817 49.3953C28.6811 47.9906 28.0544 46.4739 27.6311 44.8744H15.3927V58.9635H29.4817V49.3953ZM36.5263 56.4733C34.7627 55.4569 33.1778 54.1655 31.8299 52.6576V58.9635H36.5263V56.4733ZM43.5708 58.9635V58.8462C43.9806 58.8985 44.3945 58.9377 44.8121 58.9635H43.5708ZM48.2671 58.9635H47.1879C47.5505 58.9411 47.9103 58.9086 48.2671 58.8661V58.9635ZM57.6598 58.4401V63.6598H48.2671V68.3562H57.6598C58.9054 68.3562 60.0999 67.8614 60.9806 66.9806C61.8614 66.0999 62.3562 64.9054 62.3562 63.6598V62.9933L57.6598 58.4401ZM62.3562 26.089H58.9417C58.531 25.7067 58.1032 25.3424 57.6598 24.9973V16.6963H48.2671V12H57.6598C58.9054 12 60.0999 12.4948 60.9806 13.3755C61.8614 14.2563 62.3562 15.4508 62.3562 16.6963V26.089ZM52.9635 21.3927V22.3166C51.9679 21.9242 50.9312 21.6135 49.8617 21.3927H52.9635ZM38.8744 21.3927H42.1383C41.0106 21.6255 39.9194 21.9583 38.8744 22.3813V21.3927ZM36.5263 35.4817V34.4066C36.3212 34.7532 36.1346 35.112 35.9678 35.4817H36.5263ZM31.8299 27.3424C32.22 26.906 32.6299 26.4877 33.0583 26.089H31.8299V27.3424ZM43.5708 29.2691C41.8074 29.6666 40.2045 30.4876 38.8744 31.6196V35.4817H52.9635V31.4843C51.6248 30.3883 50.0229 29.6018 48.2671 29.2339V30.7854H43.5708V29.2691ZM52.9635 47.2226V48.5157C51.6248 49.6117 50.0229 50.3982 48.2671 50.7661V47.2226H52.9635ZM48.2671 42.5263V47.2226H43.5708V42.5263H48.2671ZM48.2671 42.5263V37.8299H52.9635V42.5263H48.2671ZM43.5708 42.5263H38.8744V37.8299H43.5708V42.5263ZM38.8744 47.2226H43.5708V50.7309C41.8074 50.3334 40.2045 49.5124 38.8744 48.3804V47.2226ZM20.089 26.089V30.7854H24.7854V26.089H20.089ZM20.089 49.5708V54.2671H24.7854V49.5708H20.089ZM15.3927 37.8299H20.089V42.5263H15.3927V37.8299ZM10.6963 16.6963V26.089H6V16.6963C6 15.4508 6.49479 14.2563 7.37553 13.3755C8.25626 12.4948 9.4508 12 10.6963 12H20.089V16.6963H10.6963ZM10.6963 54.2671V63.6598H20.089V68.3562H10.6963C9.4508 68.3562 8.25626 67.8614 7.37553 66.9806C6.49479 66.0999 6 64.9054 6 63.6598V54.2671H10.6963Z" fill="#287BB8"/>
<path d="M61.8759 51.9308H59.7982L59.0618 51.2207C61.7283 48.1278 63.1939 44.1792 63.191 40.0955C63.191 36.7143 62.1883 33.4091 60.3099 30.5977C58.4314 27.7864 55.7614 25.5952 52.6376 24.3013C49.5139 23.0074 46.0765 22.6689 42.7603 23.3285C39.4441 23.9881 36.398 25.6163 34.0072 28.0072C31.6163 30.398 29.9881 33.4441 29.3285 36.7603C28.6689 40.0765 29.0074 43.5139 30.3013 46.6376C31.5952 49.7614 33.7864 52.4314 36.5977 54.3099C39.4091 56.1883 42.7143 57.191 46.0955 57.191C50.3299 57.191 54.2224 55.6392 57.2207 53.0618L57.9308 53.7982V55.8759L71.0812 69L75 65.0812L61.8759 51.9308V51.9308ZM46.0955 51.9308C39.5466 51.9308 34.2602 46.6444 34.2602 40.0955C34.2602 33.5466 39.5466 28.2602 46.0955 28.2602C52.6444 28.2602 57.9308 33.5466 57.9308 40.0955C57.9308 46.6444 52.6444 51.9308 46.0955 51.9308Z" fill="#287BB8"/>
</svg>
