<svg width="68" height="67" viewBox="0 0 68 67" fill="none" xmlns="http://www.w3.org/2000/svg">
<g clip-path="url(#clip0_153_8)">
<path d="M14.4823 12.3186C15.1027 11.0682 16.06 10.016 17.2464 9.28051C18.4327 8.54502 19.8009 8.15554 21.1967 8.15596H40.4824C43.9048 8.15596 47.1871 9.51552 49.6071 11.9355C52.0271 14.3556 53.3867 17.6378 53.3867 21.0602V51.7266C53.3871 53.1225 52.9976 54.4907 52.2621 55.677C51.5266 56.8633 50.4744 57.8207 49.224 58.441V21.0602C49.224 18.7418 48.303 16.5184 46.6636 14.879C45.0243 13.2396 42.8008 12.3186 40.4824 12.3186H14.4823ZM15.0901 16.4813C13.1029 16.4813 11.1971 17.2707 9.79188 18.6759C8.38671 20.0811 7.59729 21.9869 7.59729 23.9741V64.352C7.59801 64.7066 7.6893 65.0551 7.86251 65.3645C8.03571 65.6739 8.28509 65.9339 8.58698 66.1199C8.88887 66.3058 9.23327 66.4116 9.5875 66.4271C9.94173 66.4426 10.2941 66.3674 10.6111 66.2086L26.3293 58.3578L42.0517 66.2127C42.3689 66.3708 42.7211 66.4452 43.0751 66.429C43.4291 66.4128 43.7731 66.3065 44.0745 66.1202C44.3759 65.9338 44.6247 65.6736 44.7974 65.3642C44.9701 65.0548 45.061 64.7064 45.0613 64.352V23.9741C45.0613 21.9869 44.2719 20.0811 42.8667 18.6759C41.4616 17.2707 39.5557 16.4813 37.5685 16.4813H15.0901ZM11.76 23.9741C11.76 23.0909 12.1108 22.2439 12.7353 21.6193C13.3599 20.9948 14.2069 20.644 15.0901 20.644H37.5685C38.4517 20.644 39.2988 20.9948 39.9233 21.6193C40.5478 22.2439 40.8987 23.0909 40.8987 23.9741V60.9803L27.2617 54.166C26.9723 54.0209 26.653 53.9454 26.3293 53.9454C26.0056 53.9454 25.6863 54.0209 25.3969 54.166L11.76 60.9803V23.9741Z" fill="#287BB8"/>
<path d="M23.9608 2.56606C22.7744 3.30155 21.8171 4.3538 21.1967 5.60419H47.1968C49.5152 5.60419 51.7387 6.52518 53.378 8.16455C55.0174 9.80392 55.9384 12.0274 55.9384 14.3458V51.7266C57.1888 51.1062 58.241 50.1489 58.9765 48.9626C59.712 47.7762 60.1015 46.408 60.1011 45.0122V14.3458C60.1011 10.9234 58.7415 7.64112 56.3215 5.2211C53.9015 2.80107 50.6192 1.44152 47.1968 1.44152H27.9111C26.5153 1.44109 25.1471 1.83058 23.9608 2.56606Z" fill="#287BB8"/>
<circle cx="53.5532" cy="10.1" r="9.99041" fill="white"/>
<path d="M47.7974 10.1001L51.9255 14.2283C52.209 14.5118 52.6768 14.4824 52.9226 14.1657L60.2135 4.77185" stroke="#287BB8" stroke-width="2.66411"/>
</g>
<defs>
<clipPath id="clip0_153_8">
<rect width="66.6027" height="66.6027" fill="white" transform="translate(0.937012 0.109619)"/>
</clipPath>
</defs>
</svg>
