<svg width="90" height="84" viewBox="0 0 90 84" fill="none" xmlns="http://www.w3.org/2000/svg">
<path d="M20.4765 6.18753C18.5109 6.18753 16.7434 7.28066 15.8627 9.03997L15.2274 10.3125H14.4375C12.1626 10.3125 10.3125 12.1626 10.3125 14.4375V22.6875H12.375V55.6875C12.375 57.9625 14.2251 59.8125 16.5 59.8125H49.5C51.7749 59.8125 53.625 57.9625 53.625 55.6875V22.6875H55.6875V14.4375C55.6875 12.1626 53.8374 10.3125 51.5625 10.3125H50.7726L50.1373 9.03997C49.7119 8.18067 49.0541 7.45788 48.2385 6.95367C47.4229 6.44946 46.4823 6.18403 45.5235 6.18753H20.4765ZM20.4765 10.3125H45.5235C45.9174 10.3125 46.2722 10.5291 46.4475 10.8797L48.2274 14.4375H51.5625V18.5625H14.4375V14.4375H17.7726L19.5525 10.8797C19.6381 10.7083 19.7701 10.5642 19.9334 10.464C20.0967 10.3637 20.2849 10.3112 20.4765 10.3125ZM16.5 22.6875H49.5V55.6875H16.5V22.6875ZM30.9375 28.875V37.125H22.6875V41.25H30.9375V49.5H35.0625V41.25H43.3125V37.125H35.0625V28.875H30.9375Z" fill="#287BB8"/>
<rect x="40" y="29" width="46" height="55" rx="10" fill="white"/>
<path d="M68.625 65H54.375C53.7451 65 53.141 65.2502 52.6956 65.6956C52.2502 66.141 52 66.7451 52 67.375C52 68.0049 52.2502 68.609 52.6956 69.0544C53.141 69.4998 53.7451 69.75 54.375 69.75H68.625C69.2549 69.75 69.859 69.4998 70.3044 69.0544C70.7498 68.609 71 68.0049 71 67.375C71 66.7451 70.7498 66.141 70.3044 65.6956C69.859 65.2502 69.2549 65 68.625 65ZM54.375 50.75H56.75C57.3799 50.75 57.984 50.4998 58.4294 50.0544C58.8748 49.609 59.125 49.0049 59.125 48.375C59.125 47.7451 58.8748 47.141 58.4294 46.6956C57.984 46.2502 57.3799 46 56.75 46H54.375C53.7451 46 53.141 46.2502 52.6956 46.6956C52.2502 47.141 52 47.7451 52 48.375C52 49.0049 52.2502 49.609 52.6956 50.0544C53.141 50.4998 53.7451 50.75 54.375 50.75ZM68.625 55.5H54.375C53.7451 55.5 53.141 55.7502 52.6956 56.1956C52.2502 56.641 52 57.2451 52 57.875C52 58.5049 52.2502 59.109 52.6956 59.5544C53.141 59.9998 53.7451 60.25 54.375 60.25H68.625C69.2549 60.25 69.859 59.9998 70.3044 59.5544C70.7498 59.109 71 58.5049 71 57.875C71 57.2451 70.7498 56.641 70.3044 56.1956C69.859 55.7502 69.2549 55.5 68.625 55.5ZM79.8112 63.3137C79.5854 63.0975 79.319 62.928 79.0275 62.815C78.744 62.6864 78.4363 62.6199 78.125 62.6199C77.8137 62.6199 77.506 62.6864 77.2225 62.815C76.931 62.928 76.6646 63.0975 76.4388 63.3137C76.229 63.5446 76.0603 63.8097 75.94 64.0975C75.7581 64.53 75.7084 65.0067 75.7972 65.4674C75.886 65.9282 76.1092 66.3523 76.4388 66.6862C76.6607 66.9064 76.9239 67.0805 77.2132 67.1987C77.5026 67.3169 77.8124 67.3768 78.125 67.375C78.4354 67.3712 78.742 67.3067 79.0275 67.185C79.3153 67.0647 79.5804 66.896 79.8112 66.6862C80.1408 66.3523 80.364 65.9282 80.4528 65.4674C80.5416 65.0067 80.4919 64.53 80.31 64.0975C80.1897 63.8097 80.021 63.5446 79.8112 63.3137ZM80.5 48.2325C80.4753 48.0143 80.4275 47.7994 80.3575 47.5913V47.3775C80.2433 47.1333 80.091 46.9088 79.9062 46.7125L65.6562 32.4625C65.4599 32.2778 65.2354 32.1254 64.9913 32.0112C64.9204 32.0012 64.8484 32.0012 64.7775 32.0112C64.5362 31.8729 64.2698 31.7841 63.9937 31.75H49.625C47.7353 31.75 45.9231 32.5007 44.5869 33.8369C43.2507 35.1731 42.5 36.9853 42.5 38.875V72.125C42.5 74.0147 43.2507 75.8269 44.5869 77.1631C45.9231 78.4993 47.7353 79.25 49.625 79.25H68.625C69.2549 79.25 69.859 78.9998 70.3044 78.5544C70.7498 78.109 71 77.5049 71 76.875C71 76.2451 70.7498 75.641 70.3044 75.1956C69.859 74.7502 69.2549 74.5 68.625 74.5H49.625C48.9951 74.5 48.391 74.2498 47.9456 73.8044C47.5002 73.359 47.25 72.7549 47.25 72.125V38.875C47.25 38.2451 47.5002 37.641 47.9456 37.1956C48.391 36.7502 48.9951 36.5 49.625 36.5H61.5V43.625C61.5 45.5147 62.2507 47.3269 63.5869 48.6631C64.9231 49.9993 66.7353 50.75 68.625 50.75H75.75V55.5C75.75 56.1299 76.0002 56.734 76.4456 57.1794C76.891 57.6248 77.4951 57.875 78.125 57.875C78.7549 57.875 79.359 57.6248 79.8044 57.1794C80.2498 56.734 80.5 56.1299 80.5 55.5V48.2325ZM68.625 46C67.9951 46 67.391 45.7498 66.9456 45.3044C66.5002 44.859 66.25 44.2549 66.25 43.625V39.8487L72.4013 46H68.625ZM78.125 69.75C77.4951 69.75 76.891 70.0002 76.4456 70.4456C76.0002 70.891 75.75 71.4951 75.75 72.125V76.875C75.75 77.5049 76.0002 78.109 76.4456 78.5544C76.891 78.9998 77.4951 79.25 78.125 79.25C78.7549 79.25 79.359 78.9998 79.8044 78.5544C80.2498 78.109 80.5 77.5049 80.5 76.875V72.125C80.5 71.4951 80.2498 70.891 79.8044 70.4456C79.359 70.0002 78.7549 69.75 78.125 69.75Z" fill="#287BB8"/>
</svg>
